<svg width="66" height="69" viewBox="0 0 66 69" fill="none" xmlns="http://www.w3.org/2000/svg">
<g clip-path="url(#clip0_9_2873)">
<path d="M62.3348 5.04796L31.7039 0.0527962C29.5066 -0.30353 27.4214 1.19436 27.0651 3.39171L20.4203 44.0921C20.0507 46.3422 21.5816 48.467 23.8318 48.8365L57.5574 54.3398C57.6036 54.3464 57.6432 54.353 57.6894 54.353C58.0787 54.353 58.4218 54.0692 58.4878 53.6733C58.5604 53.2312 58.2634 52.8155 57.8213 52.7429L24.0957 47.2396C23.4358 47.1341 22.8486 46.7711 22.4592 46.2234C22.0699 45.6758 21.9116 45.0093 22.0171 44.3494C22.1227 43.683 22.4856 43.1023 23.0267 42.713C23.5744 42.3237 24.2409 42.1587 24.9007 42.2709L58.6264 47.7741C58.6725 47.7807 58.7121 47.7873 58.7583 47.7873C58.7979 47.7873 58.8309 47.7741 58.8705 47.7675C58.9101 47.7675 58.9497 47.7609 58.9893 47.7477C59.0487 47.7279 59.1015 47.7015 59.1542 47.6685C59.1872 47.6488 59.2202 47.6356 59.2466 47.6158C59.2994 47.5762 59.3456 47.5234 59.3852 47.4706C59.405 47.4442 59.4314 47.4244 59.4446 47.398C59.4974 47.3122 59.537 47.2198 59.5502 47.1143L65.6605 9.6934C66.0168 7.49606 64.5189 5.41089 62.3216 5.05456L62.3348 5.04796Z" fill="#01AFEE"/>
<path d="M45.6209 61.209L11.8887 66.7056C10.5162 66.9234 9.22288 65.9996 8.99853 64.6271C8.89295 63.9606 9.04472 63.3007 9.44064 62.753C9.82996 62.2054 10.4172 61.849 11.0771 61.7369L44.8027 56.2402C45.2448 56.1676 45.5418 55.7519 45.4692 55.3098L45.2184 53.7525L23.6013 50.2222C22.143 49.9847 20.8563 49.1928 19.9919 47.9853C19.1274 46.7843 18.7843 45.3129 19.0219 43.8546L23.5089 16.3778L4.11554 19.5386C3.04656 19.7101 2.11615 20.2908 1.48268 21.1684C0.849214 22.0461 0.598466 23.115 0.776629 24.1774L7.40826 64.8778C7.58642 65.9666 8.1803 66.9234 9.07111 67.5634C9.78376 68.0781 10.6152 68.3421 11.4796 68.3421C11.704 68.3421 11.9283 68.3223 12.1527 68.2893L45.8849 62.7926C46.327 62.7201 46.6239 62.3043 46.5513 61.8622C46.4788 61.4201 46.0697 61.1232 45.6209 61.1958V61.209Z" fill="#F5951E"/>
</g>
<defs>
<clipPath id="clip0_9_2873">
<rect width="65.0032" height="68.3553" fill="white" transform="translate(0.723633)"/>
</clipPath>
</defs>
</svg>
